# xmcd CD database file
#
# Track frame offsets:
#	150
#	40518
#	67936
#	112511
#	139505
#	157622
#	177694
#	210018
#
# Disc length: 3678 seconds
#
# Revision: 0
# Processed by: cddbd v1.5.1PL2 Copyright (c) Steve Scherf et al.
# Submitted via: CDex 1.51
#
DISCID=500e5c08
DTITLE=Sarah Hopkins - Honour the Earth
DYEAR=2001
DGENRE=New Age
TTITLE0=Honour the Earth as your mother
TTITLE1=Remember the joy, life is sacred
TTITLE2=Two kyries from the winds of heaven
TTITLE3=Past life melodies II
TTITLE4=Return to joy
TTITLE5=In the present
TTITLE6=Past life melodies
TTITLE7=Reclaiming the spirit
EXTD=YEAR: 2001
EXTT0=
EXTT1=
EXTT2=
EXTT3=
EXTT4=
EXTT5=
EXTT6=
EXTT7=
PLAYORDER=
